<svg width="43" height="37" viewBox="0 0 43 37" fill="none" xmlns="http://www.w3.org/2000/svg">
<path d="M10.9375 8.56517V10.7527H31.7188V15.0829L29.292 22.7839H10.2493L7.51488 3.09375H1.09375V5.28125H5.61012L8.34449 24.9714H30.8962L33.9062 15.4194V8.56517H10.9375ZM12.0985 27.1798C10.9386 27.1811 9.82657 27.6424 9.00638 28.4626C8.1862 29.2828 7.72484 30.3948 7.72352 31.5548C7.72352 32.7151 8.18445 33.8279 9.00492 34.6484C9.8254 35.4688 10.9382 35.9298 12.0985 35.9298C13.2588 35.9298 14.3716 35.4688 15.1921 34.6484C16.0126 33.8279 16.4735 32.7151 16.4735 31.5548C16.4722 30.3948 16.0109 29.2828 15.1907 28.4626C14.3705 27.6424 13.2584 27.1811 12.0985 27.1798V27.1798ZM12.0985 33.7423C11.6659 33.7423 11.2429 33.614 10.8832 33.3736C10.5235 33.1332 10.2431 32.7916 10.0775 32.3919C9.91196 31.9922 9.86864 31.5523 9.95305 31.128C10.0375 30.7037 10.2458 30.3139 10.5517 30.008C10.8576 29.702 11.2474 29.4937 11.6718 29.4093C12.0961 29.3249 12.5359 29.3682 12.9356 29.5338C13.3353 29.6993 13.677 29.9797 13.9174 30.3395C14.1577 30.6992 14.286 31.1221 14.286 31.5548C14.2853 32.1347 14.0546 32.6907 13.6446 33.1008C13.2345 33.5109 12.6785 33.7416 12.0985 33.7423V33.7423ZM27.411 27.1798C26.2511 27.1811 25.1391 27.6424 24.3189 28.4626C23.4987 29.2828 23.0373 30.3948 23.036 31.5548C23.036 32.7151 23.497 33.8279 24.3174 34.6484C25.1379 35.4688 26.2507 35.9298 27.411 35.9298C28.5713 35.9298 29.6841 35.4688 30.5046 34.6484C31.3251 33.8279 31.786 32.7151 31.786 31.5548C31.7847 30.3948 31.3234 29.2828 30.5032 28.4626C29.683 27.6424 28.5709 27.1811 27.411 27.1798V27.1798ZM27.411 33.7423C26.9784 33.7423 26.5554 33.614 26.1957 33.3736C25.836 33.1332 25.5556 32.7916 25.39 32.3919C25.2245 31.9922 25.1811 31.5523 25.2655 31.128C25.35 30.7037 25.5583 30.3139 25.8642 30.008C26.1701 29.702 26.5599 29.4937 26.9843 29.4093C27.4086 29.3249 27.8484 29.3682 28.2481 29.5338C28.6478 29.6993 28.9895 29.9797 29.2299 30.3395C29.4702 30.6992 29.5985 31.1221 29.5985 31.5548C29.5978 32.1347 29.3671 32.6907 28.9571 33.1008C28.547 33.5109 27.991 33.7416 27.411 33.7423V33.7423Z" fill="#1A1A1A"/>
<circle cx="34.5" cy="8.5" r="8.5" fill="#FFD029"/>
<path d="M33.764 13V5.32L34.604 6.16H32.084V4.6H35.708V13H33.764Z" fill="black"/>
</svg>
